<svg xmlns="http://www.w3.org/2000/svg" width="16" height="22" shape-rendering="crispEdges">
  <!-- Row 0: tip -->
  <rect x="0" y="0" width="2" height="2" fill="#0a0a0a"/>
  <!-- Row 1 -->
  <rect x="0" y="2" width="2" height="2" fill="#0a0a0a"/>
  <rect x="2" y="2" width="2" height="2" fill="#0a0a0a"/>
  <!-- Row 2 -->
  <rect x="0" y="4" width="2" height="2" fill="#0a0a0a"/>
  <rect x="2" y="4" width="2" height="2" fill="#e5ff7a"/>
  <rect x="4" y="4" width="2" height="2" fill="#0a0a0a"/>
  <!-- Row 3 -->
  <rect x="0" y="6" width="2" height="2" fill="#0a0a0a"/>
  <rect x="2" y="6" width="2" height="2" fill="#e5ff7a"/>
  <rect x="4" y="6" width="2" height="2" fill="#e5ff7a"/>
  <rect x="6" y="6" width="2" height="2" fill="#0a0a0a"/>
  <!-- Row 4 -->
  <rect x="0" y="8" width="2" height="2" fill="#0a0a0a"/>
  <rect x="2" y="8" width="2" height="2" fill="#e5ff7a"/>
  <rect x="4" y="8" width="2" height="2" fill="#e5ff7a"/>
  <rect x="6" y="8" width="2" height="2" fill="#e5ff7a"/>
  <rect x="8" y="8" width="2" height="2" fill="#0a0a0a"/>
  <!-- Row 5 -->
  <rect x="0" y="10" width="2" height="2" fill="#0a0a0a"/>
  <rect x="2" y="10" width="2" height="2" fill="#e5ff7a"/>
  <rect x="4" y="10" width="2" height="2" fill="#e5ff7a"/>
  <rect x="6" y="10" width="2" height="2" fill="#e5ff7a"/>
  <rect x="8" y="10" width="2" height="2" fill="#e5ff7a"/>
  <rect x="10" y="10" width="2" height="2" fill="#0a0a0a"/>
  <!-- Row 6 -->
  <rect x="0" y="12" width="2" height="2" fill="#0a0a0a"/>
  <rect x="2" y="12" width="2" height="2" fill="#e5ff7a"/>
  <rect x="4" y="12" width="2" height="2" fill="#e5ff7a"/>
  <rect x="6" y="12" width="2" height="2" fill="#e5ff7a"/>
  <rect x="8" y="12" width="2" height="2" fill="#e5ff7a"/>
  <rect x="10" y="12" width="2" height="2" fill="#e5ff7a"/>
  <rect x="12" y="12" width="2" height="2" fill="#0a0a0a"/>
  <!-- Row 7: diagonal cut on right -->
  <rect x="0" y="14" width="2" height="2" fill="#0a0a0a"/>
  <rect x="2" y="14" width="2" height="2" fill="#e5ff7a"/>
  <rect x="4" y="14" width="2" height="2" fill="#e5ff7a"/>
  <rect x="6" y="14" width="2" height="2" fill="#e5ff7a"/>
  <rect x="8" y="14" width="2" height="2" fill="#0a0a0a"/>
  <rect x="10" y="14" width="2" height="2" fill="#0a0a0a"/>
  <!-- Row 8: shaft narrows -->
  <rect x="0" y="16" width="2" height="2" fill="#0a0a0a"/>
  <rect x="2" y="16" width="2" height="2" fill="#e5ff7a"/>
  <rect x="4" y="16" width="2" height="2" fill="#e5ff7a"/>
  <rect x="6" y="16" width="2" height="2" fill="#0a0a0a"/>
  <!-- Row 9 -->
  <rect x="0" y="18" width="2" height="2" fill="#0a0a0a"/>
  <rect x="2" y="18" width="2" height="2" fill="#e5ff7a"/>
  <rect x="4" y="18" width="2" height="2" fill="#0a0a0a"/>
  <!-- Row 10: base -->
  <rect x="0" y="20" width="2" height="2" fill="#0a0a0a"/>
  <rect x="2" y="20" width="2" height="2" fill="#0a0a0a"/>
</svg>
